<svg width="113" height="29" viewBox="0 0 113 29" fill="none" xmlns="http://www.w3.org/2000/svg">
<path d="M7.71094 13V15.5H0.484375V13H7.71094ZM2.125 10.125H5.45313V21.3125C5.45313 21.6198 5.5 21.8594 5.59375 22.0312C5.6875 22.1979 5.81771 22.3151 5.98438 22.3828C6.15625 22.4505 6.35417 22.4844 6.57813 22.4844C6.73438 22.4844 6.89063 22.4714 7.04688 22.4453C7.20312 22.4141 7.32292 22.3906 7.40625 22.375L7.92969 24.8516C7.76302 24.9036 7.52865 24.9635 7.22656 25.0313C6.92448 25.1042 6.55729 25.1484 6.125 25.1641C5.32292 25.1953 4.61979 25.0885 4.01563 24.8437C3.41667 24.599 2.95052 24.2187 2.61719 23.7031C2.28385 23.1875 2.11979 22.5365 2.125 21.75V10.125ZM9.87891 25V13H13.1055V15.0937H13.2305C13.4492 14.349 13.8164 13.7865 14.332 13.4063C14.8477 13.0208 15.4414 12.8281 16.1133 12.8281C16.2799 12.8281 16.4596 12.8385 16.6523 12.8594C16.8451 12.8802 17.0143 12.9089 17.1602 12.9453V15.8984C17.0039 15.8516 16.7878 15.8099 16.5117 15.7734C16.2357 15.737 15.9831 15.7188 15.7539 15.7188C15.2643 15.7188 14.8268 15.8255 14.4414 16.0391C14.0612 16.2474 13.7591 16.5391 13.5352 16.9141C13.3164 17.2891 13.207 17.7214 13.207 18.2109V25H9.87891ZM23.791 25.2344C22.5566 25.2344 21.4941 24.9844 20.6035 24.4844C19.7181 23.9792 19.0358 23.2656 18.5566 22.3437C18.0775 21.4167 17.8379 20.3203 17.8379 19.0547C17.8379 17.8203 18.0775 16.737 18.5566 15.8047C19.0358 14.8724 19.7103 14.1458 20.5801 13.625C21.4551 13.1042 22.4811 12.8438 23.6582 12.8438C24.4499 12.8438 25.1868 12.9714 25.8691 13.2266C26.5566 13.4766 27.1556 13.8542 27.666 14.3594C28.1816 14.8646 28.5827 15.5 28.8691 16.2656C29.1556 17.026 29.2988 17.9167 29.2988 18.9375V19.8516H19.166V17.7891H26.166C26.166 17.3099 26.0618 16.8854 25.8535 16.5156C25.6452 16.1458 25.3561 15.8568 24.9863 15.6484C24.6217 15.4349 24.1973 15.3281 23.7129 15.3281C23.2077 15.3281 22.7598 15.4453 22.3691 15.6797C21.9837 15.9089 21.6816 16.2187 21.4629 16.6094C21.2441 16.9948 21.1322 17.4245 21.127 17.8984V19.8594C21.127 20.4531 21.2363 20.9661 21.4551 21.3984C21.679 21.8307 21.9941 22.1641 22.4004 22.3984C22.8066 22.6328 23.2884 22.75 23.8457 22.75C24.2155 22.75 24.554 22.6979 24.8613 22.5938C25.1686 22.4896 25.4316 22.3333 25.6504 22.125C25.8691 21.9167 26.0358 21.6615 26.1504 21.3594L29.2285 21.5625C29.0723 22.3021 28.752 22.9479 28.2676 23.5C27.7884 24.0469 27.1686 24.474 26.4082 24.7813C25.653 25.0833 24.7806 25.2344 23.791 25.2344ZM31.4707 25V13H34.7988V25H31.4707ZM33.1426 11.4531C32.6478 11.4531 32.2233 11.2891 31.8691 10.9609C31.5202 10.6276 31.3457 10.2292 31.3457 9.76562C31.3457 9.30729 31.5202 8.91406 31.8691 8.58594C32.2233 8.2526 32.6478 8.08594 33.1426 8.08594C33.6374 8.08594 34.0592 8.2526 34.4082 8.58594C34.7624 8.91406 34.9395 9.30729 34.9395 9.76562C34.9395 10.2292 34.7624 10.6276 34.4082 10.9609C34.0592 11.2891 33.6374 11.4531 33.1426 11.4531ZM40.793 18.0625V25H37.4648V13H40.6367V15.1172H40.7773C41.043 14.4193 41.4883 13.8672 42.1133 13.4609C42.7383 13.0495 43.4961 12.8438 44.3867 12.8438C45.2201 12.8438 45.9466 13.026 46.5664 13.3906C47.1862 13.7552 47.668 14.276 48.0117 14.9531C48.3555 15.625 48.5273 16.4271 48.5273 17.3594V25H45.1992V17.9531C45.2044 17.2187 45.0169 16.6458 44.6367 16.2344C44.2565 15.8177 43.7331 15.6094 43.0664 15.6094C42.6185 15.6094 42.2227 15.7057 41.8789 15.8984C41.5404 16.0911 41.2747 16.3724 41.082 16.7422C40.8945 17.1068 40.7982 17.5469 40.793 18.0625ZM56.6191 25.2344C55.3848 25.2344 54.3223 24.9844 53.4316 24.4844C52.5462 23.9792 51.8639 23.2656 51.3848 22.3437C50.9056 21.4167 50.666 20.3203 50.666 19.0547C50.666 17.8203 50.9056 16.737 51.3848 15.8047C51.8639 14.8724 52.5384 14.1458 53.4082 13.625C54.2832 13.1042 55.3092 12.8438 56.4863 12.8438C57.278 12.8438 58.015 12.9714 58.6973 13.2266C59.3848 13.4766 59.9837 13.8542 60.4941 14.3594C61.0098 14.8646 61.4108 15.5 61.6973 16.2656C61.9837 17.026 62.127 17.9167 62.127 18.9375V19.8516H51.9941V17.7891H58.9941C58.9941 17.3099 58.89 16.8854 58.6816 16.5156C58.4733 16.1458 58.1842 15.8568 57.8145 15.6484C57.4499 15.4349 57.0254 15.3281 56.541 15.3281C56.0358 15.3281 55.5879 15.4453 55.1973 15.6797C54.8118 15.9089 54.5098 16.2187 54.291 16.6094C54.0723 16.9948 53.9603 17.4245 53.9551 17.8984V19.8594C53.9551 20.4531 54.0645 20.9661 54.2832 21.3984C54.5072 21.8307 54.8223 22.1641 55.2285 22.3984C55.6348 22.6328 56.1165 22.75 56.6738 22.75C57.0436 22.75 57.3822 22.6979 57.6895 22.5938C57.9967 22.4896 58.2598 22.3333 58.4785 22.125C58.6973 21.9167 58.8639 21.6615 58.9785 21.3594L62.0566 21.5625C61.9004 22.3021 61.5801 22.9479 61.0957 23.5C60.6165 24.0469 59.9967 24.474 59.2363 24.7813C58.4811 25.0833 57.6087 25.2344 56.6191 25.2344ZM66.2441 25.2031C65.7285 25.2031 65.2858 25.0208 64.916 24.6562C64.5514 24.2865 64.3691 23.8437 64.3691 23.3281C64.3691 22.8177 64.5514 22.3802 64.916 22.0156C65.2858 21.651 65.7285 21.4687 66.2441 21.4687C66.7441 21.4687 67.1816 21.651 67.5566 22.0156C67.9316 22.3802 68.1191 22.8177 68.1191 23.3281C68.1191 23.6719 68.0306 23.987 67.8535 24.2734C67.6816 24.5547 67.4551 24.7812 67.1738 24.9531C66.8926 25.1198 66.5827 25.2031 66.2441 25.2031ZM70.8516 25V13H74.0234V15.1172H74.1641C74.4141 14.4141 74.8307 13.8594 75.4141 13.4531C75.9974 13.0469 76.6953 12.8438 77.5078 12.8438C78.3307 12.8438 79.0313 13.0495 79.6094 13.4609C80.1875 13.8672 80.5729 14.4193 80.7656 15.1172H80.8906C81.1354 14.4297 81.5781 13.8802 82.2188 13.4687C82.8646 13.0521 83.6276 12.8438 84.5078 12.8438C85.6276 12.8438 86.5365 13.2005 87.2344 13.9141C87.9375 14.6224 88.2891 15.6276 88.2891 16.9297V25H84.9688V17.5859C84.9688 16.9193 84.7917 16.4193 84.4375 16.0859C84.0833 15.7526 83.6406 15.5859 83.1094 15.5859C82.5052 15.5859 82.0339 15.7786 81.6953 16.1641C81.3568 16.5443 81.1875 17.0469 81.1875 17.6719V25H77.9609V17.5156C77.9609 16.9271 77.7917 16.4583 77.4531 16.1094C77.1198 15.7604 76.6797 15.5859 76.1328 15.5859C75.763 15.5859 75.4297 15.6797 75.1328 15.8672C74.8411 16.0495 74.6094 16.3073 74.4375 16.6406C74.2656 16.9687 74.1797 17.3542 74.1797 17.7969V25H70.8516ZM96.3867 25.2344C95.1523 25.2344 94.0898 24.9844 93.1992 24.4844C92.3138 23.9792 91.6315 23.2656 91.1523 22.3437C90.6732 21.4167 90.4336 20.3203 90.4336 19.0547C90.4336 17.8203 90.6732 16.737 91.1523 15.8047C91.6315 14.8724 92.306 14.1458 93.1758 13.625C94.0508 13.1042 95.0768 12.8438 96.2539 12.8438C97.0456 12.8438 97.7826 12.9714 98.4648 13.2266C99.1523 13.4766 99.7513 13.8542 100.262 14.3594C100.777 14.8646 101.178 15.5 101.465 16.2656C101.751 17.026 101.895 17.9167 101.895 18.9375V19.8516H91.7617V17.7891H98.7617C98.7617 17.3099 98.6576 16.8854 98.4492 16.5156C98.2409 16.1458 97.9518 15.8568 97.582 15.6484C97.2174 15.4349 96.793 15.3281 96.3086 15.3281C95.8034 15.3281 95.3555 15.4453 94.9648 15.6797C94.5794 15.9089 94.2773 16.2187 94.0586 16.6094C93.8398 16.9948 93.7279 17.4245 93.7227 17.8984V19.8594C93.7227 20.4531 93.832 20.9661 94.0508 21.3984C94.2747 21.8307 94.5898 22.1641 94.9961 22.3984C95.4023 22.6328 95.8841 22.75 96.4414 22.75C96.8112 22.75 97.1497 22.6979 97.457 22.5938C97.7643 22.4896 98.0273 22.3333 98.2461 22.125C98.4648 21.9167 98.6315 21.6615 98.7461 21.3594L101.824 21.5625C101.668 22.3021 101.348 22.9479 100.863 23.5C100.384 24.0469 99.7643 24.474 99.0039 24.7813C98.2487 25.0833 97.3763 25.2344 96.3867 25.2344Z" fill="#89C5CC"/>
<path d="M109.642 28.116H111.834C111.834 28.116 112.929 15.8928 111.834 9.9464C110.738 3.99996 105.314 3.03468 100.511 3.99997C97.2235 4.66064 92.8408 7.63389 92.8408 7.63389L94.3018 9.28568L95.3976 8.62489C102.094 3.7332 109.643 5.00919 109.642 13.2499L109.642 28.116Z" fill="#CCCCCC" stroke="#CCCCCC"/>
<path d="M92.9329 4.19149C95.4721 1.89643 99.5877 1.89786 102.125 4.19469V4.19469C104.663 6.49151 104.662 10.214 102.122 12.509L98.1407 16.1079L88.9512 7.79032L92.9329 4.19149Z" fill="#C5CFD6"/>
<ellipse cx="1.64561" cy="6.17674" rx="1.64561" ry="6.17674" transform="matrix(0.733732 -0.679439 0.749433 0.662081 87.6596 9.03571)" fill="#F2F2F2"/>
</svg>
